<?xml version="1.0" encoding="UTF-8" standalone="no"?>
<svg
   xmlns:dc="http://purl.org/dc/elements/1.1/"
   xmlns:cc="http://creativecommons.org/ns#"
   xmlns:rdf="http://www.w3.org/1999/02/22-rdf-syntax-ns#"
   xmlns:svg="http://www.w3.org/2000/svg"
   xmlns="http://www.w3.org/2000/svg"
   xmlns:sodipodi="http://sodipodi.sourceforge.net/DTD/sodipodi-0.dtd"
   xmlns:inkscape="http://www.inkscape.org/namespaces/inkscape"
   width="16.0px"
   height="16.0px"
   viewBox="0 0 16.0 16.0"
   version="1.1"
   id="SVGRoot"
   sodipodi:docname="ntnulogo.svg"
   inkscape:version="1.0.1 (0767f8302a, 2020-10-17)">
  <defs
     id="defs1624" />
  <sodipodi:namedview
     id="base"
     pagecolor="#ffffff"
     bordercolor="#666666"
     borderopacity="1.0"
     inkscape:pageopacity="0.0"
     inkscape:pageshadow="2"
     inkscape:zoom="44.8"
     inkscape:cx="8.7084426"
     inkscape:cy="6.1283422"
     inkscape:document-units="px"
     inkscape:current-layer="layer1"
     inkscape:document-rotation="0"
     showgrid="true"
     inkscape:window-width="1439"
     inkscape:window-height="921"
     inkscape:window-x="1074"
     inkscape:window-y="254"
     inkscape:window-maximized="0">
    <inkscape:grid
       type="xygrid"
       id="grid2194" />
  </sodipodi:namedview>
  <metadata
     id="metadata1627">
    <rdf:RDF>
      <cc:Work
         rdf:about="">
        <dc:format>image/svg+xml</dc:format>
        <dc:type
           rdf:resource="http://purl.org/dc/dcmitype/StillImage" />
        <dc:title></dc:title>
      </cc:Work>
    </rdf:RDF>
  </metadata>
  <g
     inkscape:label="Layer 1"
     inkscape:groupmode="layer"
     id="layer1">
    <g
       id="g847"
       transform="matrix(0.14665445,0,0,0.14665445,-3.725023,-39.787352)">
      <path
         class="st0"
         d="m 52.7,298.6 h 54.5 v 54.5 H 52.7 Z m 54.6,-27.3 H 52.7 c -15.1,0 -27.3,12.2 -27.3,27.3 v 54.5 c 0,15 12.2,27.3 27.3,27.3 h 54.5 c 15.1,0 27.3,-12.2 27.3,-27.3 v -54.5 c 0,-15.1 -12.2,-27.3 -27.2,-27.3"
         id="path835"
         style="fill:#000000;fill-opacity:1" />
      <path
         class="st0"
         d="m 79.8,303.3 c -12.4,0 -22.4,10 -22.4,22.4 0,12.4 10,22.4 22.4,22.4 12.4,0 22.4,-10 22.4,-22.4 0,-12.4 -10,-22.4 -22.4,-22.4"
         id="path837"
         style="fill:#000000;fill-opacity:1" />
    </g>
  </g>
</svg>
