<?xml version="1.0" encoding="UTF-8" standalone="no"?>
<svg
   xmlns:dc="http://purl.org/dc/elements/1.1/"
   xmlns:cc="http://creativecommons.org/ns#"
   xmlns:rdf="http://www.w3.org/1999/02/22-rdf-syntax-ns#"
   xmlns:svg="http://www.w3.org/2000/svg"
   xmlns="http://www.w3.org/2000/svg"
   xmlns:sodipodi="http://sodipodi.sourceforge.net/DTD/sodipodi-0.dtd"
   xmlns:inkscape="http://www.inkscape.org/namespaces/inkscape"
   width="210mm"
   height="297mm"
   viewBox="0 0 210 297"
   version="1.1"
   id="svg8"
   inkscape:version="1.0.1 (0767f8302a, 2020-10-17)"
   sodipodi:docname="ntnulogoInk.svg">
  <defs
     id="defs2" />
  <sodipodi:namedview
     id="base"
     pagecolor="#ffffff"
     bordercolor="#666666"
     borderopacity="1.0"
     inkscape:pageopacity="0.0"
     inkscape:pageshadow="2"
     inkscape:zoom="0.98994949"
     inkscape:cx="398.74897"
     inkscape:cy="646.95336"
     inkscape:document-units="mm"
     inkscape:current-layer="g847"
     inkscape:document-rotation="0"
     showgrid="false"
     inkscape:window-width="1439"
     inkscape:window-height="921"
     inkscape:window-x="145"
     inkscape:window-y="105"
     inkscape:window-maximized="0" />
  <metadata
     id="metadata5">
    <rdf:RDF>
      <cc:Work
         rdf:about="">
        <dc:format>image/svg+xml</dc:format>
        <dc:type
           rdf:resource="http://purl.org/dc/dcmitype/StillImage" />
        <dc:title></dc:title>
      </cc:Work>
    </rdf:RDF>
  </metadata>
  <g
     inkscape:label="Layer 1"
     inkscape:groupmode="layer"
     id="layer1">
    <g
       id="g847"
       transform="matrix(0.26458333,0,0,0.26458333,39.751014,73.781361)">
	<path
   class="st0"
   d="m 52.7,298.6 h 54.5 v 54.5 H 52.7 Z m 54.6,-27.3 H 52.7 c -15.1,0 -27.3,12.2 -27.3,27.3 v 54.5 c 0,15 12.2,27.3 27.3,27.3 h 54.5 c 15.1,0 27.3,-12.2 27.3,-27.3 v -54.5 c 0,-15.1 -12.2,-27.3 -27.2,-27.3"
   id="path835"
   style="fill:#000000;fill-opacity:1" />

	<path
   class="st0"
   d="m 79.8,303.3 c -12.4,0 -22.4,10 -22.4,22.4 0,12.4 10,22.4 22.4,22.4 12.4,0 22.4,-10 22.4,-22.4 0,-12.4 -10,-22.4 -22.4,-22.4"
   id="path837"
   style="fill:#000000;fill-opacity:1" />

	
	
	
	
</g>
  </g>
  <style
     type="text/css"
     id="style833">
	.st0{fill:#00509E;}
</style>
</svg>
